PathFileType	4	(X/Y/Z)	0_coords_data.trc
DataRate	CameraRate	NumFrames	NumMarkers	Units	OrigDataRate	OrigDataStartFrame	OrigNumFrames
30.0	30.0	7	21	m	30.0	10	59
Frame#	Time	THUMB_TIP	THUMB_IP	THUMB_MCP	THUMB_CMC	INDEX_TIP	INDEX_DIP	INDEX_PIP	INDEX_MCP	MIDDLE_TIP	MIDDLE_DIP	MIDDLE_PIP	MIDDLE_MCP	RING_TIP	RING_DIP	RING_PIP	RING_MCP	PINKY_TIP	PINKY_DIP	PINKY_PIP	PINKY_MCP	WRIST
X1	Y1	Z1	X2	Y2	Z2	X3	Y3	Z3	X4	Y4	Z4	X5	Y5	Z5	X6	Y6	Z6	X7	Y7	Z7	X8	Y8	Z8	X9	Y9	Z9	X10	Y10	Z10	X11	Y11	Z11	X12	Y12	Z12	X13	Y13	Z13	X14	Y14	Z14	X15	Y15	Z15	X16	Y16	Z16	X17	Y17	Z17	X18	Y18	Z18	X19	Y19	Z19	X20	Y20	Z20	X21	Y21	Z21
9	0.3	0.02528459930419922	-0.03056999969482422	0.934875	0.01879170036315918	-0.019721900939941406	0.9600670166015625	0.028092500686645507	-0.003598320007324218	0.9858369750976562	0.010481599807739259	0.021344499588012697	0.998906005859375	0.034364898681640624	-0.122427001953125	0.9720599975585937	0.032112300872802736	-0.1005530014038086	0.9807319946289063	0.028004100799560547	-0.08014620208740235	0.9896719970703125	0.017302900314331054	-0.04484529876708984	1.00827001953125	0.019156299591064452	-0.025156400680541993	0.9785360107421875	0.021279699325561525	-0.04165790176391602	0.964844970703125	0.009947259902954102	-0.06661669921875	0.9703610229492188	-0.010120699882507325	-0.04726670074462891	1.00877001953125	0.0027067899703979493	-0.01963570022583008	0.9634500122070313	0.003257790088653564	-0.03601499938964844	0.9514949951171875	-0.00910515022277832	-0.05931660079956055	0.9577620239257812	-0.025460300445556642	-0.037856300354003905	0.9907009887695313	-0.04905410003662109	-0.09648300170898437	0.9577890014648438	-0.044756999969482424	-0.07474349975585938	0.9606010131835937	-0.04148540115356445	-0.05616049957275391	0.9651530151367187	-0.03624959945678711	-0.02605380058288574	0.972989013671875	-0.019025800704956054	0.030080900192260743	1.02752001953125
10	0.3333333333333333	0.025115699768066407	-0.030134899139404297	0.9346439819335938	0.018588199615478515	-0.0193799991607666	0.9598209838867188	0.027931299209594727	-0.003283289909362793	0.98552099609375	0.010231800079345703	0.021682600021362304	0.9987529907226562	0.03408039855957031	-0.12215499877929688	0.9714219970703125	0.03184860038757324	-0.10025499725341797	0.9801339721679687	0.027771299362182617	-0.07989309692382812	0.9890999755859375	0.016847900390625	-0.044589000701904295	1.0080800170898438	0.018563600540161134	-0.025197900772094727	0.9790339965820313	0.021039400100708008	-0.04131669998168945	0.964718994140625	0.009766420364379884	-0.06632019805908203	0.969916015625	-0.01000920009613037	-0.04715639877319336	1.0081300048828126	0.0025046100616455077	-0.019256999969482422	0.9633670043945313	0.003041840076446533	-0.03566170120239258	0.9511090087890625	-0.00922103977203369	-0.058985000610351564	0.9573170166015625	-0.025561899185180665	-0.03778900146484375	0.9903870239257813	-0.04911439895629883	-0.0962323989868164	0.95735400390625	-0.04489839935302734	-0.07448760223388672	0.9602319946289063	-0.04163420104980469	-0.05585039901733398	0.9649010009765625	-0.03635169982910156	-0.0257908992767334	0.9727319946289062	-0.019026199340820314	0.030112600326538085	1.02706005859375
11	0.36666666666666664	0.02491239929199219	-0.029747100830078126	0.9342529907226562	0.018447000503540038	-0.019105800628662108	0.9595869750976562	0.02776650047302246	-0.003097189903259277	0.985177001953125	0.010049500465393067	0.02195669937133789	0.9986179809570312	0.03400339889526367	-0.12186499786376953	0.97097998046875	0.0317903003692627	-0.09997550201416015	0.9797999877929687	0.027746599197387697	-0.07961489868164062	0.9888179931640625	0.01681599998474121	-0.044409198760986326	1.0078200073242187	0.018649099349975586	-0.024703899383544923	0.9792550048828125	0.02095560073852539	-0.04094710159301758	0.9643519897460937	0.009745900154113769	-0.06606629943847656	0.9695650024414062	-0.010262700080871582	-0.046975700378417966	1.00825	0.002422930002212524	-0.01902429962158203	0.9627329711914062	0.0028317298889160153	-0.03541849899291992	0.9507639770507812	-0.009374719619750976	-0.05877999877929688	0.9570980224609374	-0.025741100311279297	-0.037521099090576174	0.990041015625	-0.04922100067138672	-0.09606279754638672	0.9570479736328125	-0.044997600555419924	-0.07434149932861328	0.959916015625	-0.041750301361083986	-0.05573440170288086	0.964594970703125	-0.036541698455810546	-0.025547800064086915	0.9725399780273437	-0.01920759963989258	0.030306999206542968	1.026949951171875
12	0.4	0.024880399703979494	-0.029530899047851562	0.9339509887695312	0.018440000534057616	-0.018901300430297852	0.9591669921875	0.027719999313354494	-0.003015820026397705	0.9847680053710938	0.010006699562072754	0.0220216007232666	0.9982440185546875	0.03391410064697266	-0.12161900329589843	0.9705809936523437	0.031687000274658206	-0.09971980285644531	0.9793900146484374	0.02767729949951172	-0.07938099670410156	0.988458984375	0.01691780090332031	-0.04424280166625977	1.00747998046875	0.01874220085144043	-0.024506200790405275	0.9782750244140626	0.021028200149536134	-0.040854499816894534	0.9639600219726563	0.009660200119018554	-0.06583070373535156	0.9693389892578125	-0.010288299560546875	-0.046674400329589846	1.007969970703125	0.002283669948577881	-0.01886109924316406	0.9627249755859375	0.002793610095977783	-0.03514849853515625	0.9507440185546875	-0.00941436004638672	-0.058611099243164065	0.9568930053710938	-0.025765300750732422	-0.037280200958251956	0.989885009765625	-0.04918539810180664	-0.09592659759521484	0.9567760009765625	-0.045011699676513674	-0.07414669799804688	0.9597369995117188	-0.04178340148925781	-0.05561000061035156	0.964344970703125	-0.03670209884643555	-0.02538199996948242	0.9723889770507812	-0.019315999984741213	0.03032900047302246	1.0266300048828125
13	0.43333333333333335	0.024831499099731445	-0.029266399383544923	0.9339110107421875	0.018717199325561523	-0.01873430061340332	0.959093994140625	0.02796269989013672	-0.002792079925537109	0.9848569946289063	0.010300600051879882	0.022072200775146485	0.9981959838867187	0.034192901611328125	-0.12142500305175781	0.9701339721679687	0.03197410011291504	-0.09953980255126953	0.97914501953125	0.02791659927368164	-0.07916790008544922	0.9882540283203125	0.016852100372314452	-0.044143798828125	1.0077000122070312	0.018874900817871094	-0.02447570037841797	0.9787440185546875	0.02128230094909668	-0.04053969955444336	0.963864013671875	0.009976469993591308	-0.06566439819335937	0.9693090209960937	-0.010120699882507325	-0.04667380142211914	1.0077000122070312	0.002554320096969604	-0.018663400650024413	0.9624550170898437	0.003074160099029541	-0.035025501251220705	0.9503560180664062	-0.009100370407104492	-0.05835010147094727	0.9566950073242187	-0.02548660087585449	-0.037260398864746094	0.9898359985351562	-0.04869889831542969	-0.09586350250244141	0.9566430053710937	-0.044572898864746094	-0.07406909942626953	0.9595859985351562	-0.04146799850463867	-0.05549679946899414	0.9642890014648438	-0.036416698455810546	-0.025268800735473634	0.9722849731445312	-0.019127899169921875	0.030519699096679686	1.0267099609375
14	0.4666666666666667	0.025181400299072267	-0.029036699295043947	0.9340579833984375	0.019187999725341798	-0.018565000534057616	0.9594039916992188	0.028583799362182617	-0.0027322099208831776	0.985052001953125	0.01067889976501465	0.02225149917602539	0.998541015625	0.034813800811767576	-0.12122000122070313	0.970447998046875	0.03259799957275391	-0.09942410278320313	0.9792979736328125	0.028492799758911135	-0.0790656967163086	0.988489990234375	0.017657400131225586	-0.04402999877929688	1.0078599853515624	0.019536399841308595	-0.02420669937133789	0.977833984375	0.021743099212646486	-0.04047679901123047	0.9639949951171874	0.010508500099182128	-0.06552580261230469	0.9694550170898437	-0.009620779991149903	-0.04638079833984375	1.0081799926757813	0.0029993700981140133	-0.01852129936218262	0.9627219848632812	0.003657049894332885	-0.034889400482177736	0.9507230224609375	-0.008572150230407714	-0.05826139831542969	0.956927001953125	-0.025008399963378905	-0.03731769943237305	0.9900989990234375	-0.047994800567626957	-0.0958228988647461	0.9567219848632813	-0.04397069931030274	-0.07402410125732421	0.9596920166015624	-0.04086130142211914	-0.05545289993286133	0.9643770141601562	-0.03590119934082031	-0.025251300811767578	0.9725579833984375	-0.018828500747680665	0.030396999359130858	1.0266099853515624
15	0.5	0.025794200897216797	-0.028923799514770508	0.9343400268554688	0.019693700790405274	-0.018390399932861328	0.959458984375	0.02889699935913086	-0.002551300048828125	0.9852860107421875	0.01115820026397705	0.022424200057983398	0.998698974609375	0.03540489959716797	-0.12101699829101563	0.9706279907226563	0.03312260055541992	-0.09919270324707032	0.97956298828125	0.02902239990234375	-0.07887539672851562	0.9887360229492187	0.01796590042114258	-0.04383499908447266	1.0081099853515625	0.01996059989929199	-0.023999200820922852	0.9788670043945312	0.02226059913635254	-0.04024409866333008	0.9644119873046875	0.011038599967956543	-0.06530359649658203	0.9695659790039063	-0.00912123966217041	-0.046374698638916016	1.00827001953125	0.00357121992111206	-0.018268199920654298	0.9632000122070312	0.004143839836120606	-0.03465340042114258	0.9509310302734375	-0.008025569915771484	-0.05805670166015625	0.9571240234375	-0.02462430000305176	-0.03708760070800781	0.9902860107421875	-0.047454498291015626	-0.09572170257568359	0.95702001953125	-0.04345059967041016	-0.07392639923095704	0.9599739990234375	-0.040374401092529294	-0.05528310012817383	0.96472998046875	-0.035537399291992185	-0.025164899826049806	0.9727509765625	-0.01823240089416504	0.030635499954223634	1.02702001953125
